<svg width="57" height="57" viewBox="0 0 57 57" fill="none" xmlns="http://www.w3.org/2000/svg">
<path d="M28.4995 14.3C28.4995 13.3578 28.3139 12.4248 27.9534 11.5543C27.5928 10.6838 27.0643 9.89283 26.3981 9.22658C25.7318 8.56033 24.9409 8.03183 24.0704 7.67126C23.1999 7.31069 22.2669 7.12511 21.3247 7.12511H14.2994C13.3495 7.11288 12.4066 7.28942 11.5255 7.64448C10.6443 7.99954 9.84249 8.52605 9.16644 9.19345C8.49039 9.86086 7.95361 10.6559 7.58725 11.5324C7.22088 12.4089 7.03223 13.3494 7.03223 14.2994C7.03223 15.2494 7.22088 16.1899 7.58725 17.0664C7.95361 17.9429 8.49039 18.7379 9.16644 19.4053C9.84249 20.0727 10.6443 20.5992 11.5255 20.9543C12.4066 21.3093 13.3495 21.4859 14.2994 21.4737H15.6745V24.9376C15.6745 24.9376 28.4995 23.2062 28.4995 14.3ZM21.9683 33.2501C21.9683 35.8745 19.8427 38.0001 17.2183 38.0001C14.5939 38.0001 12.4683 35.8745 12.4683 33.2501C12.4683 30.6257 14.5939 28.5001 17.2183 28.5001C19.8427 28.5001 21.9683 30.6257 21.9683 33.2501ZM17.2183 40.3751C13.8493 40.3751 7.12453 42.0732 7.12453 45.4422V49.8751H27.312V45.4422C27.312 42.072 20.5872 40.3751 17.2183 40.3751ZM39.7808 38.0001C42.4052 38.0001 44.5308 35.8745 44.5308 33.2501C44.5308 30.6257 42.4052 28.5001 39.7808 28.5001C37.1564 28.5001 35.0308 30.6257 35.0308 33.2501C35.0308 35.8745 37.1564 38.0001 39.7808 38.0001ZM39.7808 40.3751C36.4118 40.3751 29.687 42.0732 29.687 45.4422V49.8751H49.8745V45.4422C49.8745 42.072 43.1497 40.3751 39.7808 40.3751ZM38.0494 8.31261C36.1465 8.31261 34.3216 9.06853 32.976 10.4141C31.6305 11.7596 30.8745 13.5846 30.8745 15.4875C30.8745 24.3937 42.2745 26.1251 42.2745 26.1251V22.6612H42.6997C43.6496 22.6734 44.5924 22.4968 45.4736 22.1418C46.3547 21.7867 47.1566 21.2602 47.8326 20.5928C48.5087 19.9254 49.0454 19.1304 49.4118 18.2539C49.7782 17.3774 49.9668 16.4369 49.9668 15.4869C49.9668 14.5369 49.7782 13.5964 49.4118 12.7199C49.0454 11.8434 48.5087 11.0484 47.8326 10.381C47.1566 9.71355 46.3547 9.18704 45.4736 8.83198C44.5924 8.47692 43.6496 8.30038 42.6997 8.31261H38.0494Z" fill="#981914"/>
</svg>
