<svg width="74" height="74" viewBox="0 0 74 74" fill="none" xmlns="http://www.w3.org/2000/svg">
<path d="M37 0C16.5661 0 0 16.5661 0 37L0.00123324 37.0654L0 37.1307C0 57.4931 16.4736 74 36.7965 74L36.8754 73.9975L37 74C57.4339 74 74 57.4339 74 37C74 16.5661 57.4339 0 37 0ZM71.5333 37C71.5333 39.9526 71.1609 42.8176 70.4653 45.5519C70.1434 45.3299 69.2924 46.2475 69.0827 45.0315C68.82 43.5219 67.118 42.4735 66.2016 43.195C65.2853 43.9165 62.6669 46.0144 62.5374 47.3267C62.4054 48.6377 61.2917 50.2115 60.77 49.099C60.2446 47.9841 58.6758 44.5073 58.74 43.5897C58.8041 42.6721 58.0172 43.9178 56.8431 42.0813C55.664 40.2449 53.6352 41.8174 51.9986 40.8998C50.3619 39.981 48.5292 38.7353 47.6116 38.3431C46.6977 37.9484 49.2482 42.0147 49.5763 41.4906C49.9056 40.9664 51.2129 41.884 51.6064 41.884C51.9998 41.884 53.0457 42.8016 52.392 43.6551C51.7383 44.5085 45.9133 48.0531 45.3238 47.1306C44.7318 46.2081 41.2661 39.0634 40.6753 39.5012C40.0858 39.939 44.342 47.3921 45.0623 47.8509C45.7801 48.3109 47.9421 47.9175 48.988 47.4587C50.0363 46.9999 46.8284 52.5745 45.4557 53.2307C44.0818 53.8856 42.9693 55.9193 43.5564 56.8369C44.1459 57.7545 44.2113 61.2313 42.9693 61.6913C41.7237 62.1489 41.2661 62.8704 41.6583 63.7239C42.0493 64.5749 40.7432 66.0166 40.1536 66.9355C39.5629 67.8531 37.2738 69.7549 37.0765 70.2803C36.8816 70.8057 34.0671 70.6737 32.9522 70.6737C31.841 70.6737 32.6907 69.2961 32.5588 68.117C32.4305 66.9355 31.4488 65.8205 31.4488 65.231C31.4488 64.6402 31.1195 63.2626 30.6631 62.6077C30.2056 61.9503 30.0724 60.7047 30.5312 59.9844C30.9912 59.2617 31.3168 57.165 30.4029 56.2462C29.4853 55.3286 28.437 53.7536 29.1585 52.5079C29.8787 51.2623 28.3728 51.3942 27.1296 50.8022C25.8852 50.2115 23.3322 50.9996 22.0236 51.1969C20.7138 51.393 19.4065 50.8688 19.0131 50.2115C18.6209 49.5566 17.7699 47.9175 16.8979 47.5228C16.0284 47.1306 16.5267 45.4249 17.0496 44.77C17.575 44.1151 16.5267 42.8682 17.0496 42.3416C17.575 41.8174 17.9006 39.9168 18.9477 39.5012C19.996 39.0868 19.7987 38.8019 19.8308 37.8177C19.8641 36.8335 21.0086 36.8335 21.2035 36.3093C21.4008 35.7839 21.9891 35.5225 23.1706 35.5225C24.3485 35.5225 26.3428 34.833 27.2924 34.6036C28.2421 34.3742 29.8787 34.0462 29.7468 34.965C29.616 35.8826 29.6493 36.9309 30.2697 36.9309C30.8925 36.9309 31.7435 37.2923 32.7253 37.904C33.707 38.5145 33.7391 38.015 33.871 37.3256C34.003 36.6362 35.3757 36.8989 36.7965 37.555C38.2173 38.2111 40.1549 37.7511 40.774 37.687C41.3968 37.6191 41.6595 35.7519 41.4955 35.129C41.3302 34.5062 40.3497 35.4238 39.7281 35.0304C39.1065 34.6382 38.2543 35.129 37.6339 34.5703C37.0111 34.0141 36.9124 32.7018 37.6339 32.6698C38.353 32.6365 38.7143 32.4071 39.1386 31.9162C39.5653 31.4241 41.1687 31.1293 41.7903 31.6202C42.4106 32.1123 43.3295 32.4404 43.8832 31.8829C44.4395 31.3267 42.7732 30.245 42.4106 29.949C42.0505 29.6543 42.3453 28.7034 41.9864 28.7034C41.625 28.7034 41.3302 28.8662 41.5276 29.3262C41.7237 29.785 40.4805 30.6039 40.2819 30.1464C40.087 29.6863 39.7602 28.802 39.2693 28.802C38.7797 28.802 38.1248 31.0319 38.0915 31.392C38.0582 31.7534 37.2072 32.3429 36.5215 32.3429C35.8357 32.3429 35.8357 33.131 36.1946 33.4924C36.5548 33.8525 36.2921 35.2955 35.6384 35.3782C34.9835 35.462 34.7541 35.2302 34.6567 34.6715C34.5592 34.1152 33.9043 34.1806 33.871 33.0324C33.8377 31.8841 33.1175 31.3279 32.6599 30.8025C32.2023 30.2771 31.0233 28.7367 30.5657 29.4261C30.1081 30.1155 32.2023 31.5906 32.7573 31.9828C33.316 32.3762 33.2174 33.2285 32.9226 33.4258C32.6278 33.6231 32.0716 35.2302 31.7448 35.3597C31.4155 35.4904 31.1034 34.8713 31.1034 34.8713C30.6126 34.6752 31.7892 34.0844 31.9865 33.7896C32.1814 33.4949 29.9256 31.429 29.5186 30.8383C29.1116 30.2475 27.3726 31.3291 26.5882 30.9369C25.8026 30.5447 24.6235 32.412 24.5273 33.4936C24.4274 34.5765 23.1509 34.87 21.9731 34.87C20.7965 34.87 20.0096 33.9857 20.4043 33.1002C20.7965 32.2147 20.2069 30.7396 20.8951 30.6409C21.5821 30.5435 23.5431 30.6409 23.9365 29.5593C24.3287 28.4777 22.0705 27.4935 22.956 27.2974C23.8379 27.1 25.2143 25.7249 26.196 24.9368C27.1753 24.1499 27.2739 23.1669 28.157 23.0979C29.0425 23.03 27.9621 21.3946 28.7478 20.9038C29.5346 20.4117 29.7295 22.6748 30.319 22.6748C30.9086 22.6748 32.0839 22.4775 33.0669 22.9696C34.0499 23.4617 34.3434 22.4775 34.7368 21.1973C35.129 19.9196 36.1108 19.2301 38.073 18.2472C40.0365 17.263 35.8172 18.5419 35.0304 17.5577C34.2447 16.5735 35.3251 14.409 35.8172 12.8809C36.3081 11.3516 34.246 14.409 33.1656 15.984C32.0839 17.5577 33.4603 18.2459 33.3604 19.3276C33.263 20.4104 31.4981 21.6882 31.4981 21.6882C30.7125 21.7868 30.8099 20.2131 30.4177 19.5249C30.0243 18.8367 29.3361 19.1315 28.2557 19.9183C27.1753 20.7052 27.0778 18.0498 26.7843 16.967C26.492 15.8866 28.5517 14.5077 29.5198 13.7726C30.4868 13.0351 32.0839 9.49173 33.8525 6.73893C35.6211 3.9849 38.1729 5.3613 38.8599 6.44417C39.5493 7.52457 41.313 6.83637 42.9841 8.80477C44.6541 10.7719 42.5907 11.6562 40.7284 10.857C38.8599 10.0578 41.1193 12.8378 42.1973 13.6246C43.2777 14.4103 43.8672 11.8536 44.2606 11.264C44.6528 10.6733 46.1242 10.9693 47.2034 9.3943C48.285 7.82057 50.7381 8.11657 52.1392 8.28923C53.5415 8.46313 53.1924 7.42713 52.3094 6.57983C51.6557 5.9533 52.9926 6.50213 54.5664 7.2705C64.7204 13.2805 71.5333 24.3423 71.5333 37ZM22.2518 25.2488C21.9262 24.9121 22.5811 23.5863 22.8746 23.1928C23.1706 22.7994 22.0557 22.9301 22.1235 23.4888C22.1889 24.0451 21.6968 24.8985 21.0098 25.1279C20.3229 25.3573 19.5397 25.2907 19.9307 24.6679C20.3216 24.0451 19.9627 23.4876 19.668 22.8968C19.3744 22.3061 21.3034 21.9459 21.698 21.5858C22.0902 21.2257 21.0777 20.995 21.1085 20.4388C21.1418 19.8801 21.3712 19.3892 21.7609 19.3239C22.1544 19.2585 22.5219 19.0069 22.8746 19.0291C23.9563 19.0957 23.6257 21.5537 24.0204 22.3418C24.4126 23.1275 25.5263 24.0796 25.4276 24.7666C25.329 25.456 25.1193 25.8494 24.3176 25.6521C23.5123 25.4548 22.2234 26.6684 21.7301 26.439C21.238 26.2083 22.5811 25.5855 22.2518 25.2488ZM15.1996 11.4589C16.1826 11.9498 16.9657 11.0593 17.6515 10.8681C18.4642 10.6437 18.928 13.5247 18.1436 13.4261C17.3579 13.3274 16.4749 14.9998 15.3402 14.9011C14.2043 14.8025 14.7075 14.0168 13.431 12.8365C13.1572 12.5825 13.045 12.3531 13.0351 12.152C13.3077 11.8893 13.579 11.6254 13.8614 11.3726C14.303 11.2554 14.8271 11.2727 15.1996 11.4589ZM45.9121 60.9661C46.8284 60.77 46.6521 59.0261 47.4833 58.9336C49.2507 58.7375 47.5487 63.6548 46.895 65.0324C46.2401 66.4101 45.9762 66.3435 45.3534 65.4912C44.7281 64.6402 44.9303 63.2614 45.3534 62.6065C45.7752 61.9491 44.9945 61.1635 45.9121 60.9661Z" fill="black"/>
</svg>
