<svg width="62" height="62" viewBox="0 0 62 62" fill="none" xmlns="http://www.w3.org/2000/svg">
<path d="M31 0C13.8797 0 0 13.8797 0 31L0.00103326 31.0548L0 31.1095C0 48.1699 13.8022 62 30.8295 62L30.8956 61.9979L31 62C48.1203 62 62 48.1203 62 31C62 13.8797 48.1203 0 31 0ZM59.9333 31C59.9333 33.4738 59.6213 35.8742 59.0385 38.1651C58.7688 37.9791 58.0558 38.7479 57.8801 37.7291C57.66 36.4643 56.234 35.5859 55.4662 36.1904C54.6985 36.7949 52.5047 38.5526 52.3962 39.6521C52.2856 40.7505 51.3525 42.0691 50.9154 41.137C50.4752 40.2029 49.1608 37.2899 49.2146 36.5211C49.2683 35.7523 48.609 36.796 47.6253 35.2573C46.6374 33.7187 44.9376 35.0362 43.5664 34.2674C42.1951 33.4976 40.6596 32.4539 39.8908 32.1253C39.1251 31.7946 41.262 35.2015 41.5369 34.7624C41.8128 34.3232 42.9081 35.092 43.2378 35.092C43.5674 35.092 44.4437 35.8608 43.896 36.5759C43.3483 37.2909 38.4679 40.2607 37.974 39.4878C37.478 38.7149 34.5743 32.7288 34.0793 33.0956C33.5854 33.4624 37.1514 39.7069 37.7549 40.0913C38.3563 40.4767 40.1677 40.1471 41.044 39.7627C41.9223 39.3783 39.2346 44.0489 38.0845 44.5987C36.9334 45.1474 36.0013 46.8513 36.4932 47.6201C36.9871 48.3889 37.0419 51.3019 36.0013 51.6873C34.9577 52.0707 34.5743 52.6752 34.9029 53.3903C35.2305 54.1033 34.1362 55.3112 33.6422 56.0811C33.1473 56.8499 31.2294 58.4433 31.0641 58.8835C30.9008 59.3237 28.5427 59.2131 27.6086 59.2131C26.6776 59.2131 27.3895 58.0589 27.279 57.071C27.1715 56.0811 26.349 55.1469 26.349 54.653C26.349 54.158 26.0731 53.0038 25.6907 52.4551C25.3074 51.9043 25.1958 50.8607 25.5802 50.2572C25.9656 49.6517 26.2384 47.895 25.4727 47.1252C24.7039 46.3564 23.8256 45.0368 24.4301 43.9931C25.0335 42.9495 23.7718 43.06 22.7302 42.564C21.6876 42.0691 19.5486 42.7294 18.4522 42.8947C17.3548 43.059 16.2595 42.6198 15.9299 42.0691C15.6013 41.5204 14.8883 40.1471 14.1577 39.8164C13.4292 39.4878 13.8467 38.0587 14.2848 37.51C14.725 36.9613 13.8467 35.9166 14.2848 35.4754C14.725 35.0362 14.9978 33.4438 15.8751 33.0956C16.7534 32.7484 16.5881 32.5097 16.615 31.6851C16.6429 30.8605 17.6018 30.8605 17.7651 30.4213C17.9304 29.9811 18.4233 29.7621 19.4132 29.7621C20.4001 29.7621 22.071 29.1844 22.8666 28.9922C23.6623 28.8 25.0335 28.5252 24.923 29.295C24.8134 30.0638 24.8413 30.9421 25.3611 30.9421C25.8829 30.9421 26.5959 31.2449 27.4185 31.7574C28.241 32.2689 28.2679 31.8504 28.3784 31.2728C28.489 30.6952 29.6391 30.9153 30.8295 31.465C32.0199 32.0147 33.6433 31.6293 34.162 31.5756C34.6838 31.5187 34.9039 29.9543 34.7665 29.4324C34.628 28.9106 33.8065 29.6794 33.2857 29.3498C32.7649 29.0212 32.0509 29.4324 31.5311 28.9643C31.0093 28.4983 30.9266 27.3988 31.5311 27.372C32.1336 27.3441 32.4363 27.1519 32.7918 26.7406C33.1493 26.3283 34.4927 26.0813 35.0135 26.4926C35.5332 26.9049 36.3031 27.1798 36.767 26.7127C37.2331 26.2467 35.837 25.3404 35.5332 25.0924C35.2315 24.8455 35.4785 24.0488 35.1778 24.0488C34.875 24.0488 34.628 24.1852 34.7934 24.5706C34.9577 24.955 33.9161 25.6411 33.7497 25.2578C33.5864 24.8723 33.3126 24.1314 32.9013 24.1314C32.4911 24.1314 31.9424 25.9997 31.9145 26.3014C31.8866 26.6042 31.1736 27.0981 30.5991 27.0981C30.0245 27.0981 30.0245 27.7584 30.3252 28.0612C30.627 28.3629 30.4069 29.5719 29.8592 29.6412C29.3105 29.7114 29.1183 29.5172 29.0367 29.0491C28.955 28.583 28.4063 28.6378 28.3784 27.6758C28.3505 26.7137 27.7471 26.2477 27.3637 25.8075C26.9803 25.3673 25.9925 24.0767 25.6091 24.6543C25.2257 25.2319 26.9803 26.4678 27.4453 26.7964C27.9134 27.126 27.8308 27.8401 27.5838 28.0054C27.3368 28.1707 26.8708 29.5172 26.597 29.6257C26.3211 29.7352 26.0596 29.2165 26.0596 29.2165C25.6484 29.0522 26.6342 28.5572 26.7995 28.3102C26.9628 28.0633 25.0728 26.3324 24.7318 25.8375C24.3908 25.3425 22.9338 26.2487 22.2766 25.9201C21.6184 25.5915 20.6305 27.156 20.5499 28.0622C20.4662 28.9695 19.3967 29.2154 18.4099 29.2154C17.4241 29.2154 16.7648 28.4745 17.0955 27.7326C17.4241 26.9907 16.9301 25.7548 17.5067 25.6721C18.0823 25.5905 19.7253 25.6721 20.0549 24.7659C20.3835 23.8597 18.4915 23.0351 19.2334 22.8708C19.9723 22.7054 21.1255 21.5533 21.948 20.893C22.7685 20.2337 22.8511 19.4101 23.591 19.3523C24.3329 19.2954 23.4277 17.9252 24.086 17.514C24.7452 17.1017 24.9085 18.9978 25.4024 18.9978C25.8964 18.9978 26.8811 18.8325 27.7047 19.2448C28.5283 19.6571 28.7742 18.8325 29.1038 17.7599C29.4324 16.6894 30.255 16.1117 31.899 15.2882C33.5441 14.4636 30.009 15.5351 29.3498 14.7105C28.6915 13.8859 29.5967 12.0724 30.009 10.7921C30.4203 9.5108 28.6926 12.0724 27.7874 13.392C26.8811 14.7105 28.0343 15.2871 27.9506 16.1934C27.869 17.1006 26.3903 18.1712 26.3903 18.1712C25.7321 18.2538 25.8137 16.9353 25.4851 16.3587C25.1555 15.7821 24.5789 16.0291 23.6737 16.6883C22.7685 17.3476 22.6868 15.1228 22.4409 14.2156C22.196 13.3104 23.9217 12.1551 24.7328 11.5392C25.543 10.9213 26.8811 7.95253 28.3629 5.64613C29.8447 3.3387 31.9827 4.4919 32.5583 5.39917C33.1359 6.30437 34.6136 5.72777 36.0137 7.37697C37.4129 9.02513 35.6841 9.76603 34.1238 9.09643C32.5583 8.42683 34.4513 10.756 35.3545 11.4152C36.2597 12.0735 36.7536 9.93137 37.0832 9.43743C37.4118 8.94247 38.6446 9.19047 39.5488 7.8709C40.455 6.55237 42.5103 6.80037 43.6842 6.94503C44.8591 7.09073 44.5666 6.22273 43.8268 5.51283C43.2791 4.9879 44.3992 5.44773 45.7178 6.0915C54.2252 11.1269 59.9333 20.3949 59.9333 31ZM18.6434 21.1544C18.3706 20.8723 18.9193 19.7615 19.1652 19.4318C19.4132 19.1022 18.4791 19.2117 18.5359 19.6798C18.5907 20.1459 18.1784 20.8609 17.6028 21.0531C17.0273 21.2453 16.3711 21.1895 16.6987 20.6677C17.0262 20.1459 16.7255 19.6788 16.4786 19.1838C16.2326 18.6889 17.8488 18.3871 18.1794 18.0854C18.508 17.7837 17.6597 17.5904 17.6855 17.1244C17.7134 16.6563 17.9056 16.245 18.2321 16.1903C18.5618 16.1355 18.8697 15.9247 19.1652 15.9433C20.0715 15.9991 19.7945 18.0585 20.1252 18.7188C20.4538 19.3771 21.3869 20.1748 21.3042 20.7504C21.2216 21.328 21.0459 21.6576 20.3742 21.4923C19.6995 21.327 18.6196 22.3438 18.2063 22.1516C17.794 21.9583 18.9193 21.4365 18.6434 21.1544ZM12.7348 9.6007C13.5584 10.012 14.2145 9.2659 14.7891 9.10573C15.47 8.91767 15.8586 11.3315 15.2014 11.2489C14.5431 11.1662 13.8033 12.5674 12.8526 12.4847C11.9009 12.4021 12.3225 11.7438 11.253 10.7549C11.0236 10.5421 10.9296 10.3499 10.9213 10.1814C11.1497 9.96133 11.377 9.7402 11.6136 9.52837C11.9836 9.4302 12.4227 9.44467 12.7348 9.6007ZM38.4669 51.0797C39.2346 50.9154 39.0869 49.4543 39.7833 49.3768C41.2641 49.2125 39.8381 53.3324 39.2904 54.4866C38.7417 55.6409 38.5206 55.5851 37.9988 54.871C37.4749 54.158 37.6443 53.0028 37.9988 52.4541C38.3522 51.9033 37.6981 51.2451 38.4669 51.0797Z" fill="#981914"/>
</svg>
