<svg width="65" height="62" viewBox="0 0 65 62" fill="none" xmlns="http://www.w3.org/2000/svg">
<path d="M32.8167 0L30.788 5.78878L24.6696 23.2512L6.14412 23.171L0 23.1421L4.89022 26.86L19.6283 38.0681L13.825 55.6334L11.9024 61.4605L16.9534 57.9674L32.1801 47.4334L47.1208 58.372L52.0753 62L50.307 56.1246L44.9763 38.4052L60.0134 27.5983L65 24.0121L58.8591 23.8773L40.3369 23.4599L34.6911 5.8433L32.8167 0ZM32.6431 12.9355L36.8646 26.1086L37.3115 27.5051L38.7775 27.5373L52.625 27.8455L41.385 35.9266L40.1922 36.7806L40.6166 38.1836L44.6001 51.4306L33.4308 43.2532L32.2476 42.3863L31.0419 43.2211L19.6572 51.0968L23.9976 37.9622L24.4541 36.572L23.2871 35.6828L12.2721 27.3063L26.1195 27.3673L27.5856 27.3738L28.0711 25.99L32.6431 12.9355Z" fill="#981914"/>
</svg>
