<svg width="91" height="91" viewBox="0 0 91 91" fill="none" xmlns="http://www.w3.org/2000/svg">
<path d="M32.7554 48.8584L34.0474 48.749C34.1431 49.3779 34.3641 49.8519 34.7104 50.1709C35.0614 50.4854 35.4829 50.6426 35.9751 50.6426C36.5675 50.6426 37.0688 50.4193 37.479 49.9727C37.8892 49.526 38.0942 48.9336 38.0942 48.1953C38.0942 47.4935 37.896 46.9398 37.4995 46.5342C37.1076 46.1286 36.5926 45.9258 35.9546 45.9258C35.5581 45.9258 35.2004 46.0169 34.8813 46.1992C34.5623 46.377 34.3117 46.6094 34.1294 46.8965L32.9741 46.7461L33.9448 41.5986H38.9282V42.7744H34.9292L34.3892 45.4678C34.9907 45.0485 35.6219 44.8389 36.2827 44.8389C37.1577 44.8389 37.896 45.1419 38.4976 45.748C39.0991 46.3542 39.3999 47.1335 39.3999 48.0859C39.3999 48.9928 39.1356 49.7767 38.6069 50.4375C37.9644 51.2487 37.0871 51.6543 35.9751 51.6543C35.0636 51.6543 34.3185 51.3991 33.7397 50.8887C33.1655 50.3783 32.8374 49.7015 32.7554 48.8584ZM40.5483 46.541C40.5483 45.3561 40.6691 44.4036 40.9106 43.6836C41.1567 42.959 41.519 42.4007 41.9976 42.0088C42.4806 41.6169 43.0868 41.4209 43.8159 41.4209C44.3537 41.4209 44.8254 41.5303 45.231 41.749C45.6366 41.9632 45.9715 42.2754 46.2358 42.6855C46.5002 43.0911 46.7075 43.5879 46.8579 44.1758C47.0083 44.7591 47.0835 45.5475 47.0835 46.541C47.0835 47.7168 46.9627 48.667 46.7212 49.3916C46.4797 50.1117 46.1174 50.6699 45.6343 51.0664C45.1558 51.4583 44.5496 51.6543 43.8159 51.6543C42.8498 51.6543 42.091 51.3079 41.5396 50.6152C40.8787 49.7812 40.5483 48.4232 40.5483 46.541ZM41.813 46.541C41.813 48.1862 42.0044 49.2822 42.3872 49.8291C42.7746 50.3714 43.2508 50.6426 43.8159 50.6426C44.381 50.6426 44.855 50.3691 45.2378 49.8223C45.6252 49.2754 45.8188 48.1816 45.8188 46.541C45.8188 44.8913 45.6252 43.7952 45.2378 43.2529C44.855 42.7106 44.3765 42.4395 43.8022 42.4395C43.2371 42.4395 42.786 42.6787 42.4487 43.1572C42.0249 43.7679 41.813 44.8958 41.813 46.541ZM48.5737 43.8682C48.5737 43.1527 48.7537 42.5443 49.1138 42.043C49.4738 41.5417 49.9956 41.291 50.6792 41.291C51.3081 41.291 51.8276 41.5166 52.2378 41.9678C52.6525 42.4144 52.8599 43.0729 52.8599 43.9434C52.8599 44.791 52.6502 45.445 52.231 45.9053C51.8162 46.361 51.3035 46.5889 50.6929 46.5889C50.0868 46.5889 49.5809 46.3633 49.1753 45.9121C48.7743 45.4609 48.5737 44.7796 48.5737 43.8682ZM50.7134 42.1387C50.408 42.1387 50.1528 42.2708 49.9478 42.5352C49.7472 42.7995 49.647 43.2848 49.647 43.9912C49.647 44.6338 49.7495 45.0872 49.9546 45.3516C50.1597 45.6113 50.4126 45.7412 50.7134 45.7412C51.0233 45.7412 51.2785 45.609 51.479 45.3447C51.6841 45.0804 51.7866 44.5973 51.7866 43.8955C51.7866 43.2484 51.6841 42.7949 51.479 42.5352C51.2739 42.2708 51.0187 42.1387 50.7134 42.1387ZM50.7202 51.8525L56.2026 41.291H57.2007L51.7388 51.8525H50.7202ZM55.0542 49.1318C55.0542 48.4118 55.2342 47.8034 55.5942 47.3066C55.9543 46.8053 56.4784 46.5547 57.1665 46.5547C57.7954 46.5547 58.3149 46.7803 58.7251 47.2314C59.1398 47.6781 59.3472 48.3366 59.3472 49.207C59.3472 50.0547 59.1375 50.7087 58.7183 51.1689C58.3035 51.6247 57.7886 51.8525 57.1733 51.8525C56.5672 51.8525 56.0614 51.627 55.6558 51.1758C55.2547 50.7201 55.0542 50.0387 55.0542 49.1318ZM57.2007 47.4023C56.8908 47.4023 56.6333 47.5345 56.4282 47.7988C56.2277 48.0632 56.1274 48.5485 56.1274 49.2549C56.1274 49.8929 56.23 50.3441 56.4351 50.6084C56.6401 50.8727 56.8931 51.0049 57.1938 51.0049C57.5083 51.0049 57.7658 50.8727 57.9663 50.6084C58.1714 50.3441 58.2739 49.861 58.2739 49.1592C58.2739 48.512 58.1714 48.0586 57.9663 47.7988C57.7612 47.5345 57.506 47.4023 57.2007 47.4023Z" fill="black"/>
<path d="M90.2148 45.1074C90.2148 70.0195 70.0195 90.2148 45.1074 90.2148C20.1953 90.2148 0 70.0195 0 45.1074C0 20.1953 20.1953 0 45.1074 0C70.0195 0 90.2148 20.1953 90.2148 45.1074ZM10.0561 45.1074C10.0561 64.4657 25.7491 80.1586 45.1074 80.1586C64.4657 80.1586 80.1586 64.4657 80.1586 45.1074C80.1586 25.7491 64.4657 10.0561 45.1074 10.0561C25.7491 10.0561 10.0561 25.7491 10.0561 45.1074Z" fill="#DCDCDC"/>
<path d="M45.1074 2.25537C45.1074 1.00976 46.1178 -0.00588233 47.3618 0.0563714C52.5152 0.314251 57.5919 1.45476 62.3692 3.4336C67.8419 5.70046 72.8145 9.02304 77.0031 13.2117C81.1917 17.4003 84.5143 22.3729 86.7812 27.8455C89.048 33.3182 90.2148 39.1838 90.2148 45.1074C90.2148 51.031 89.048 56.8966 86.7812 62.3693C84.5143 67.8419 81.1917 72.8145 77.0031 77.0031C72.8145 81.1917 67.8419 84.5143 62.3692 86.7812C57.5919 88.76 52.5152 89.9005 47.3618 90.1584C46.1178 90.2206 45.1073 89.205 45.1073 87.9594C45.1073 86.7138 46.1179 85.7106 47.3616 85.6414C51.9223 85.3878 56.413 84.3659 60.643 82.6138C65.5684 80.5736 70.0438 77.5833 73.8135 73.8136C77.5833 70.0438 80.5736 65.5685 82.6138 60.6431C84.654 55.7177 85.704 50.4386 85.704 45.1074C85.704 39.7762 84.654 34.4971 82.6138 29.5717C80.5736 24.6463 77.5833 20.171 73.8136 16.4012C70.0438 12.6315 65.5685 9.64115 60.6431 7.60098C56.4131 5.84886 51.9223 4.827 47.3616 4.57337C46.118 4.50421 45.1074 3.50098 45.1074 2.25537Z" fill="#C4C4C4"/>
<path d="M45.1074 5.02806C45.1074 2.25114 47.3654 -0.0289562 50.1251 0.279947C54.326 0.750178 58.4485 1.80956 62.3692 3.4336C67.8419 5.70046 72.8145 9.02304 77.0031 13.2117C81.1917 17.4003 84.5143 22.3729 86.7812 27.8455C89.048 33.3182 90.2148 39.1838 90.2148 45.1074C90.2148 51.031 89.048 56.8966 86.7812 62.3693C84.5143 67.8419 81.1917 72.8145 77.0031 77.0031C72.8145 81.1917 67.8419 84.5143 62.3692 86.7812C58.4484 88.4052 54.326 89.4646 50.125 89.9348C47.3654 90.2437 45.1073 87.9636 45.1073 85.1867C45.1074 82.4098 47.3698 80.1956 50.1182 79.7986C52.9978 79.3827 55.8209 78.6089 58.5209 77.4905C62.7735 75.729 66.6375 73.1472 69.8923 69.8924C73.1472 66.6376 75.729 62.7735 77.4905 58.5209C79.252 54.2683 80.1586 49.7104 80.1586 45.1074C80.1586 40.5044 79.252 35.9465 77.4905 31.6939C75.729 27.4412 73.1472 23.5772 69.8924 20.3224C66.6376 17.0676 62.7735 14.4857 58.5209 12.7242C55.8209 11.6059 52.9978 10.8321 50.1183 10.4162C47.3699 10.0192 45.1074 7.80499 45.1074 5.02806Z" fill="#484848"/>
</svg>
