<svg width="91" height="91" viewBox="0 0 91 91" fill="none" xmlns="http://www.w3.org/2000/svg">
<path d="M34.0996 42.7744V41.5918H40.5869V42.5488C39.9489 43.2279 39.3154 44.1302 38.6865 45.2559C38.0622 46.3815 37.5791 47.5391 37.2373 48.7285C36.9912 49.5671 36.834 50.4854 36.7656 51.4834H35.501C35.5146 50.695 35.6696 49.7425 35.9658 48.626C36.262 47.5094 36.6859 46.4339 37.2373 45.3994C37.7933 44.3604 38.3835 43.4854 39.0078 42.7744H34.0996ZM41.8105 48.8584L43.1025 48.749C43.1982 49.3779 43.4193 49.8519 43.7656 50.1709C44.1165 50.4854 44.5381 50.6426 45.0303 50.6426C45.6227 50.6426 46.124 50.4193 46.5342 49.9727C46.9443 49.526 47.1494 48.9336 47.1494 48.1953C47.1494 47.4935 46.9512 46.9398 46.5547 46.5342C46.1628 46.1286 45.6478 45.9258 45.0098 45.9258C44.6133 45.9258 44.2555 46.0169 43.9365 46.1992C43.6175 46.377 43.3669 46.6094 43.1846 46.8965L42.0293 46.7461L43 41.5986H47.9834V42.7744H43.9844L43.4443 45.4678C44.0459 45.0485 44.6771 44.8389 45.3379 44.8389C46.2129 44.8389 46.9512 45.1419 47.5527 45.748C48.1543 46.3542 48.4551 47.1335 48.4551 48.0859C48.4551 48.9928 48.1908 49.7767 47.6621 50.4375C47.0195 51.2487 46.1423 51.6543 45.0303 51.6543C44.1188 51.6543 43.3737 51.3991 42.7949 50.8887C42.2207 50.3783 41.8926 49.7015 41.8105 48.8584ZM49.8359 43.8682C49.8359 43.1527 50.016 42.5443 50.376 42.043C50.736 41.5417 51.2578 41.291 51.9414 41.291C52.5703 41.291 53.0898 41.5166 53.5 41.9678C53.9147 42.4144 54.1221 43.0729 54.1221 43.9434C54.1221 44.791 53.9124 45.445 53.4932 45.9053C53.0785 46.361 52.5658 46.5889 51.9551 46.5889C51.349 46.5889 50.8431 46.3633 50.4375 45.9121C50.0365 45.4609 49.8359 44.7796 49.8359 43.8682ZM51.9756 42.1387C51.6702 42.1387 51.415 42.2708 51.21 42.5352C51.0094 42.7995 50.9092 43.2848 50.9092 43.9912C50.9092 44.6338 51.0117 45.0872 51.2168 45.3516C51.4219 45.6113 51.6748 45.7412 51.9756 45.7412C52.2855 45.7412 52.5407 45.609 52.7412 45.3447C52.9463 45.0804 53.0488 44.5973 53.0488 43.8955C53.0488 43.2484 52.9463 42.7949 52.7412 42.5352C52.5361 42.2708 52.2809 42.1387 51.9756 42.1387ZM51.9824 51.8525L57.4648 41.291H58.4629L53.001 51.8525H51.9824ZM56.3164 49.1318C56.3164 48.4118 56.4964 47.8034 56.8564 47.3066C57.2165 46.8053 57.7406 46.5547 58.4287 46.5547C59.0576 46.5547 59.5771 46.7803 59.9873 47.2314C60.402 47.6781 60.6094 48.3366 60.6094 49.207C60.6094 50.0547 60.3997 50.7087 59.9805 51.1689C59.5658 51.6247 59.0508 51.8525 58.4355 51.8525C57.8294 51.8525 57.3236 51.627 56.918 51.1758C56.5169 50.7201 56.3164 50.0387 56.3164 49.1318ZM58.4629 47.4023C58.153 47.4023 57.8955 47.5345 57.6904 47.7988C57.4899 48.0632 57.3896 48.5485 57.3896 49.2549C57.3896 49.8929 57.4922 50.3441 57.6973 50.6084C57.9023 50.8727 58.1553 51.0049 58.4561 51.0049C58.7705 51.0049 59.028 50.8727 59.2285 50.6084C59.4336 50.3441 59.5361 49.861 59.5361 49.1592C59.5361 48.512 59.4336 48.0586 59.2285 47.7988C59.0234 47.5345 58.7682 47.4023 58.4629 47.4023Z" fill="black"/>
<path d="M90.2148 45.1074C90.2148 70.0195 70.0195 90.2148 45.1074 90.2148C20.1953 90.2148 0 70.0195 0 45.1074C0 20.1953 20.1953 0 45.1074 0C70.0195 0 90.2148 20.1953 90.2148 45.1074ZM10.0561 45.1074C10.0561 64.4657 25.7491 80.1586 45.1074 80.1586C64.4657 80.1586 80.1586 64.4657 80.1586 45.1074C80.1586 25.7491 64.4657 10.0561 45.1074 10.0561C25.7491 10.0561 10.0561 25.7491 10.0561 45.1074Z" fill="#DCDCDC"/>
<path d="M45.1074 2.25537C45.1074 1.00976 46.1178 -0.00588233 47.3618 0.0563714C52.5152 0.314251 57.5919 1.45476 62.3692 3.4336C67.8419 5.70046 72.8145 9.02304 77.0031 13.2117C81.1917 17.4003 84.5143 22.3729 86.7812 27.8455C89.048 33.3182 90.2148 39.1838 90.2148 45.1074C90.2148 51.031 89.048 56.8966 86.7812 62.3693C84.5143 67.8419 81.1917 72.8145 77.0031 77.0031C72.8145 81.1917 67.8419 84.5143 62.3692 86.7812C57.5919 88.76 52.5152 89.9005 47.3618 90.1584C46.1178 90.2206 45.1073 89.205 45.1073 87.9594C45.1073 86.7138 46.1179 85.7106 47.3616 85.6414C51.9223 85.3878 56.413 84.3659 60.643 82.6138C65.5684 80.5736 70.0438 77.5833 73.8135 73.8136C77.5833 70.0438 80.5736 65.5685 82.6138 60.6431C84.654 55.7177 85.704 50.4386 85.704 45.1074C85.704 39.7762 84.654 34.4971 82.6138 29.5717C80.5736 24.6463 77.5833 20.171 73.8136 16.4012C70.0438 12.6315 65.5685 9.64115 60.6431 7.60098C56.4131 5.84886 51.9223 4.827 47.3616 4.57337C46.118 4.50421 45.1074 3.50098 45.1074 2.25537Z" fill="#C4C4C4"/>
<path d="M45.1074 5.02806C45.1074 2.25114 47.3654 -0.0289767 50.1251 0.279922C57.2712 1.0798 64.1485 3.58006 70.1677 7.60197C77.5856 12.5584 83.3671 19.6032 86.7812 27.8455C90.1952 36.0878 91.0885 45.1574 89.348 53.9074C87.6076 62.6574 83.3115 70.6947 77.0031 77.0031C70.6947 83.3115 62.6574 87.6076 53.9074 89.348C45.1574 91.0885 36.0878 90.1952 27.8455 86.7812C19.6032 83.3671 12.5584 77.5856 7.60196 70.1677C3.58006 64.1485 1.0798 57.2712 0.279922 50.1251C-0.0289767 47.3654 2.25114 45.1074 5.02806 45.1074C7.80499 45.1074 10.0191 47.3699 10.4161 50.1183C11.1605 55.2717 13.0472 60.2165 15.9633 64.5808C19.8148 70.345 25.2891 74.8376 31.6938 77.4905C38.0986 80.1435 45.1463 80.8376 51.9455 79.4851C58.7448 78.1327 64.9904 74.7944 69.8924 69.8924C74.7944 64.9904 78.1327 58.7448 79.4851 51.9455C80.8376 45.1463 80.1435 38.0986 77.4905 31.6938C74.8376 25.2891 70.345 19.8148 64.5808 15.9633C60.2165 13.0472 55.2717 11.1605 50.1183 10.4161C47.3699 10.0191 45.1074 7.80499 45.1074 5.02806Z" fill="#484848"/>
</svg>
