<svg width="91" height="91" viewBox="0 0 91 91" fill="none" xmlns="http://www.w3.org/2000/svg">
<path d="M38.5916 50.3008V51.4834H31.9675C31.9584 51.1872 32.0063 50.9023 32.1111 50.6289C32.2797 50.1777 32.5486 49.7334 32.9177 49.2959C33.2914 48.8584 33.8292 48.3525 34.531 47.7783C35.6202 46.8851 36.3562 46.1787 36.739 45.6592C37.1218 45.1351 37.3132 44.6406 37.3132 44.1758C37.3132 43.6882 37.1378 43.278 36.7869 42.9453C36.4405 42.6081 35.9871 42.4395 35.4265 42.4395C34.8341 42.4395 34.3601 42.6172 34.0046 42.9727C33.6492 43.3281 33.4692 43.8203 33.4646 44.4492L32.2 44.3193C32.2865 43.376 32.6124 42.6582 33.1775 42.166C33.7426 41.6693 34.5014 41.4209 35.4539 41.4209C36.4154 41.4209 37.1765 41.6875 37.7371 42.2207C38.2976 42.7539 38.5779 43.4147 38.5779 44.2031C38.5779 44.6042 38.4958 44.9984 38.3318 45.3857C38.1677 45.7731 37.8943 46.181 37.5115 46.6094C37.1332 47.0378 36.502 47.6257 35.6179 48.373C34.8796 48.9928 34.4057 49.4144 34.196 49.6377C33.9864 49.8564 33.8132 50.0775 33.6765 50.3008H38.5916ZM39.9177 48.8584L41.2097 48.749C41.3054 49.3779 41.5264 49.8519 41.8728 50.1709C42.2237 50.4854 42.6453 50.6426 43.1375 50.6426C43.7299 50.6426 44.2312 50.4193 44.6414 49.9727C45.0515 49.526 45.2566 48.9336 45.2566 48.1953C45.2566 47.4935 45.0583 46.9398 44.6619 46.5342C44.2699 46.1286 43.755 45.9258 43.1169 45.9258C42.7205 45.9258 42.3627 46.0169 42.0437 46.1992C41.7247 46.377 41.474 46.6094 41.2917 46.8965L40.1365 46.7461L41.1072 41.5986H46.0906V42.7744H42.0916L41.5515 45.4678C42.1531 45.0485 42.7843 44.8389 43.4451 44.8389C44.3201 44.8389 45.0583 45.1419 45.6599 45.748C46.2615 46.3542 46.5623 47.1335 46.5623 48.0859C46.5623 48.9928 46.2979 49.7767 45.7693 50.4375C45.1267 51.2487 44.2494 51.6543 43.1375 51.6543C42.226 51.6543 41.4809 51.3991 40.9021 50.8887C40.3279 50.3783 39.9998 49.7015 39.9177 48.8584ZM47.9431 43.8682C47.9431 43.1527 48.1231 42.5443 48.4832 42.043C48.8432 41.5417 49.365 41.291 50.0486 41.291C50.6775 41.291 51.197 41.5166 51.6072 41.9678C52.0219 42.4144 52.2292 43.0729 52.2292 43.9434C52.2292 44.791 52.0196 45.445 51.6003 45.9053C51.1856 46.361 50.6729 46.5889 50.0623 46.5889C49.4561 46.5889 48.9503 46.3633 48.5447 45.9121C48.1436 45.4609 47.9431 44.7796 47.9431 43.8682ZM50.0828 42.1387C49.7774 42.1387 49.5222 42.2708 49.3171 42.5352C49.1166 42.7995 49.0164 43.2848 49.0164 43.9912C49.0164 44.6338 49.1189 45.0872 49.324 45.3516C49.5291 45.6113 49.782 45.7412 50.0828 45.7412C50.3927 45.7412 50.6479 45.609 50.8484 45.3447C51.0535 45.0804 51.156 44.5973 51.156 43.8955C51.156 43.2484 51.0535 42.7949 50.8484 42.5352C50.6433 42.2708 50.3881 42.1387 50.0828 42.1387ZM50.0896 51.8525L55.572 41.291H56.5701L51.1082 51.8525H50.0896ZM54.4236 49.1318C54.4236 48.4118 54.6036 47.8034 54.9636 47.3066C55.3236 46.8053 55.8477 46.5547 56.5359 46.5547C57.1648 46.5547 57.6843 46.7803 58.0945 47.2314C58.5092 47.6781 58.7166 48.3366 58.7166 49.207C58.7166 50.0547 58.5069 50.7087 58.0876 51.1689C57.6729 51.6247 57.158 51.8525 56.5427 51.8525C55.9366 51.8525 55.4307 51.627 55.0251 51.1758C54.6241 50.7201 54.4236 50.0387 54.4236 49.1318ZM56.5701 47.4023C56.2602 47.4023 56.0027 47.5345 55.7976 47.7988C55.5971 48.0632 55.4968 48.5485 55.4968 49.2549C55.4968 49.8929 55.5994 50.3441 55.8044 50.6084C56.0095 50.8727 56.2625 51.0049 56.5632 51.0049C56.8777 51.0049 57.1352 50.8727 57.3357 50.6084C57.5408 50.3441 57.6433 49.861 57.6433 49.1592C57.6433 48.512 57.5408 48.0586 57.3357 47.7988C57.1306 47.5345 56.8754 47.4023 56.5701 47.4023Z" fill="black"/>
<path d="M90.2148 45.1074C90.2148 70.0195 70.0195 90.2148 45.1074 90.2148C20.1953 90.2148 0 70.0195 0 45.1074C0 20.1953 20.1953 0 45.1074 0C70.0195 0 90.2148 20.1953 90.2148 45.1074ZM10.0561 45.1074C10.0561 64.4657 25.7491 80.1586 45.1074 80.1586C64.4657 80.1586 80.1586 64.4657 80.1586 45.1074C80.1586 25.7491 64.4657 10.0561 45.1074 10.0561C25.7491 10.0561 10.0561 25.7491 10.0561 45.1074Z" fill="#DCDCDC"/>
<path d="M45.1074 5.02806C45.1074 2.25114 47.3654 -0.0289561 50.1251 0.279947C54.326 0.750178 58.4485 1.80956 62.3692 3.4336C67.8419 5.70045 72.8145 9.02304 77.0031 13.2116C81.1917 17.4003 84.5143 22.3729 86.7812 27.8455C88.4052 31.7663 89.4646 35.8887 89.9348 40.0897C90.2437 42.8494 87.9636 45.1074 85.1867 45.1074C82.4098 45.1074 80.1956 42.8449 79.7986 40.0965C79.3827 37.217 78.6089 34.3939 77.4905 31.6939C75.729 27.4412 73.1472 23.5772 69.8924 20.3224C66.6376 17.0676 62.7735 14.4857 58.5209 12.7242C55.8209 11.6059 52.9978 10.8321 50.1183 10.4162C47.3699 10.0192 45.1074 7.80499 45.1074 5.02806Z" fill="#484848"/>
</svg>
