<svg width="91" height="91" viewBox="0 0 91 91" fill="none" xmlns="http://www.w3.org/2000/svg">
<path d="M34.2861 51.4834H33.0557V43.6426C32.7594 43.9251 32.3698 44.2077 31.8867 44.4902C31.4082 44.7728 30.9775 44.9847 30.5947 45.126V43.9365C31.2829 43.613 31.8844 43.221 32.3994 42.7607C32.9144 42.3005 33.279 41.8538 33.4932 41.4209H34.2861V51.4834ZM37.4443 46.541C37.4443 45.3561 37.5651 44.4036 37.8066 43.6836C38.0527 42.959 38.415 42.4007 38.8936 42.0088C39.3766 41.6169 39.9827 41.4209 40.7119 41.4209C41.2497 41.4209 41.7214 41.5303 42.127 41.749C42.5326 41.9632 42.8675 42.2754 43.1318 42.6855C43.3962 43.0911 43.6035 43.5879 43.7539 44.1758C43.9043 44.7591 43.9795 45.5475 43.9795 46.541C43.9795 47.7168 43.8587 48.667 43.6172 49.3916C43.3757 50.1117 43.0133 50.6699 42.5303 51.0664C42.0518 51.4583 41.4456 51.6543 40.7119 51.6543C39.7458 51.6543 38.987 51.3079 38.4355 50.6152C37.7747 49.7812 37.4443 48.4232 37.4443 46.541ZM38.709 46.541C38.709 48.1862 38.9004 49.2822 39.2832 49.8291C39.6706 50.3714 40.1468 50.6426 40.7119 50.6426C41.277 50.6426 41.751 50.3691 42.1338 49.8223C42.5212 49.2754 42.7148 48.1816 42.7148 46.541C42.7148 44.8913 42.5212 43.7952 42.1338 43.2529C41.751 42.7106 41.2725 42.4395 40.6982 42.4395C40.1331 42.4395 39.682 42.6787 39.3447 43.1572C38.9209 43.7679 38.709 44.8958 38.709 46.541ZM45.2373 46.541C45.2373 45.3561 45.3581 44.4036 45.5996 43.6836C45.8457 42.959 46.208 42.4007 46.6865 42.0088C47.1696 41.6169 47.7757 41.4209 48.5049 41.4209C49.0426 41.4209 49.5143 41.5303 49.9199 41.749C50.3255 41.9632 50.6605 42.2754 50.9248 42.6855C51.1891 43.0911 51.3965 43.5879 51.5469 44.1758C51.6973 44.7591 51.7725 45.5475 51.7725 46.541C51.7725 47.7168 51.6517 48.667 51.4102 49.3916C51.1686 50.1117 50.8063 50.6699 50.3232 51.0664C49.8447 51.4583 49.2386 51.6543 48.5049 51.6543C47.5387 51.6543 46.7799 51.3079 46.2285 50.6152C45.5677 49.7812 45.2373 48.4232 45.2373 46.541ZM46.502 46.541C46.502 48.1862 46.6934 49.2822 47.0762 49.8291C47.4635 50.3714 47.9398 50.6426 48.5049 50.6426C49.07 50.6426 49.5439 50.3691 49.9268 49.8223C50.3141 49.2754 50.5078 48.1816 50.5078 46.541C50.5078 44.8913 50.3141 43.7952 49.9268 43.2529C49.5439 42.7106 49.0654 42.4395 48.4912 42.4395C47.9261 42.4395 47.4749 42.6787 47.1377 43.1572C46.7139 43.7679 46.502 44.8958 46.502 46.541ZM53.2627 43.8682C53.2627 43.1527 53.4427 42.5443 53.8027 42.043C54.1628 41.5417 54.6846 41.291 55.3682 41.291C55.9971 41.291 56.5166 41.5166 56.9268 41.9678C57.3415 42.4144 57.5488 43.0729 57.5488 43.9434C57.5488 44.791 57.3392 45.445 56.9199 45.9053C56.5052 46.361 55.9925 46.5889 55.3818 46.5889C54.7757 46.5889 54.2699 46.3633 53.8643 45.9121C53.4632 45.4609 53.2627 44.7796 53.2627 43.8682ZM55.4023 42.1387C55.097 42.1387 54.8418 42.2708 54.6367 42.5352C54.4362 42.7995 54.3359 43.2848 54.3359 43.9912C54.3359 44.6338 54.4385 45.0872 54.6436 45.3516C54.8486 45.6113 55.1016 45.7412 55.4023 45.7412C55.7122 45.7412 55.9674 45.609 56.168 45.3447C56.373 45.0804 56.4756 44.5973 56.4756 43.8955C56.4756 43.2484 56.373 42.7949 56.168 42.5352C55.9629 42.2708 55.7077 42.1387 55.4023 42.1387ZM55.4092 51.8525L60.8916 41.291H61.8896L56.4277 51.8525H55.4092ZM59.7432 49.1318C59.7432 48.4118 59.9232 47.8034 60.2832 47.3066C60.6432 46.8053 61.1673 46.5547 61.8555 46.5547C62.4844 46.5547 63.0039 46.7803 63.4141 47.2314C63.8288 47.6781 64.0361 48.3366 64.0361 49.207C64.0361 50.0547 63.8265 50.7087 63.4072 51.1689C62.9925 51.6247 62.4775 51.8525 61.8623 51.8525C61.2562 51.8525 60.7503 51.627 60.3447 51.1758C59.9437 50.7201 59.7432 50.0387 59.7432 49.1318ZM61.8896 47.4023C61.5798 47.4023 61.3223 47.5345 61.1172 47.7988C60.9167 48.0632 60.8164 48.5485 60.8164 49.2549C60.8164 49.8929 60.9189 50.3441 61.124 50.6084C61.3291 50.8727 61.582 51.0049 61.8828 51.0049C62.1973 51.0049 62.4548 50.8727 62.6553 50.6084C62.8604 50.3441 62.9629 49.861 62.9629 49.1592C62.9629 48.512 62.8604 48.0586 62.6553 47.7988C62.4502 47.5345 62.195 47.4023 61.8896 47.4023Z" fill="black"/>
<path d="M45.7885 2.25537C45.7885 1.00976 46.7989 -0.00588233 48.043 0.0563714C53.1963 0.314251 58.2731 1.45476 63.0504 3.4336C68.5231 5.70046 73.4957 9.02304 77.6843 13.2117C81.8729 17.4003 85.1955 22.3729 87.4623 27.8455C89.7292 33.3182 90.8959 39.1838 90.8959 45.1074C90.8959 51.031 89.7292 56.8966 87.4623 62.3693C85.1955 67.8419 81.8729 72.8145 77.6842 77.0031C73.4956 81.1917 68.523 84.5143 63.0504 86.7812C58.273 88.76 53.1963 89.9005 48.043 90.1584C46.7989 90.2206 45.7885 89.205 45.7885 87.9594C45.7885 86.7138 46.7991 85.7106 48.0428 85.6414C52.6034 85.3878 57.0942 84.3659 61.3242 82.6138C66.2496 80.5736 70.7249 77.5833 74.4947 73.8136C78.2644 70.0438 81.2548 65.5685 83.2949 60.6431C85.3351 55.7177 86.3852 50.4386 86.3852 45.1074C86.3852 39.7762 85.3351 34.4971 83.295 29.5717C81.2548 24.6463 78.2645 20.171 74.4947 16.4012C70.725 12.6315 66.2496 9.64115 61.3242 7.60098C57.0942 5.84886 52.6035 4.827 48.0428 4.57337C46.7991 4.50421 45.7885 3.50098 45.7885 2.25537Z" fill="#C4C4C4"/>
<path d="M90.8959 45.1074C90.8959 70.0195 70.7007 90.2148 45.7885 90.2148C20.8764 90.2148 0.681152 70.0195 0.681152 45.1074C0.681152 20.1953 20.8764 0 45.7885 0C70.7007 0 90.8959 20.1953 90.8959 45.1074ZM10.7373 45.1074C10.7373 64.4657 26.4303 80.1586 45.7885 80.1586C65.1468 80.1586 80.8398 64.4657 80.8398 45.1074C80.8398 25.7491 65.1468 10.0561 45.7885 10.0561C26.4303 10.0561 10.7373 25.7491 10.7373 45.1074Z" fill="#DCDCDC"/>
<path d="M90.8959 45.1074C90.8959 70.0195 70.7007 90.2148 45.7885 90.2148C20.8764 90.2148 0.681152 70.0195 0.681152 45.1074C0.681152 20.1953 20.8764 0 45.7885 0C70.7007 0 90.8959 20.1953 90.8959 45.1074ZM10.7373 45.1074C10.7373 64.4657 26.4303 80.1586 45.7885 80.1586C65.1468 80.1586 80.8398 64.4657 80.8398 45.1074C80.8398 25.7491 65.1468 10.0561 45.7885 10.0561C26.4303 10.0561 10.7373 25.7491 10.7373 45.1074Z" fill="#484848"/>
</svg>
