<svg width="58" height="66" viewBox="0 0 58 66" fill="none" xmlns="http://www.w3.org/2000/svg">
<path d="M37.7565 61.4277L46.5016 46.4122C46.6664 46.1286 46.7571 45.8079 46.7653 45.4798C46.7608 45.2123 46.6717 44.9529 46.5106 44.7387C46.3416 44.5147 46.142 44.3154 45.9176 44.1468C45.682 43.9672 45.4355 43.8024 45.1796 43.6533L44.3871 43.1917L52.8345 28.687C53.0445 28.5388 53.317 28.3793 53.6494 28.199C53.9819 28.0187 54.3257 27.8052 54.6778 27.5568C55.0317 27.3054 55.3568 27.0691 55.6485 26.8492C55.8887 26.6858 56.0951 26.4779 56.2566 26.2367C56.4001 25.8892 56.5155 25.5307 56.6017 25.1647C56.7502 24.5904 56.8786 24.0111 56.9868 23.4278C57.0998 22.8293 57.2094 22.2301 57.3154 21.6303C57.3847 21.2209 57.4673 20.814 57.5632 20.4101C57.6213 20.0492 57.577 19.679 57.4355 19.3413C57.2958 19.0111 57.05 18.7364 56.7371 18.5606L50.7781 15.0901C50.4522 14.9179 50.0834 14.844 49.7168 14.8777C49.3614 14.9021 49.025 15.0453 48.7618 15.2842C48.4398 15.5648 48.1132 15.8401 47.7821 16.1099C47.3164 16.4972 46.8581 16.8935 46.4077 17.2984C45.9286 17.7235 45.49 18.1205 45.087 18.4904C44.6875 18.8544 44.4373 19.1264 44.3387 19.2957C44.2124 19.5126 44.1284 19.7938 44.0939 20.1476C44.0534 20.498 44.0195 20.892 43.9934 21.3342C43.948 22.0492 43.9155 22.7651 43.896 23.4813L35.4486 37.986L34.6561 37.5244C34.3929 37.3693 34.1199 37.2316 33.8388 37.1121C33.5784 36.9991 33.3006 36.9315 33.0175 36.9122C32.754 36.8918 32.49 36.9411 32.252 37.0551C31.974 37.2139 31.7488 37.4506 31.6041 37.7359L22.8591 52.7515C22.2744 53.7555 21.9269 54.8181 21.8153 55.9346C21.7067 57.0528 21.7992 58.1409 22.094 59.2037C22.6949 61.3738 24.1259 63.2231 26.078 64.3523C27.0702 64.9302 28.1301 65.2889 29.2548 65.4268C30.3507 65.5653 31.462 65.5066 32.536 65.2533C33.6038 65.0014 34.6117 64.5439 35.503 63.9063C36.4255 63.2532 37.1943 62.4075 37.7565 61.4277ZM41.4076 41.4564L38.4281 39.7212L47.0779 24.869C47.2141 24.6342 47.2925 24.3705 47.3068 24.0993L47.5018 20.9828L50.1178 18.6835L53.9375 20.908L53.2301 24.3149L50.614 26.0254C50.3852 26.1717 50.1945 26.37 50.0574 26.6043L41.4076 41.4564ZM31.9886 43.9268L33.7186 40.9564L42.6571 46.1621L40.9271 49.1326L31.9886 43.9268ZM39.1971 52.103L34.8722 59.5291C34.5421 60.1284 34.0813 60.6458 33.5237 61.043C32.9778 61.4434 32.3619 61.7389 31.7074 61.9145C30.3894 62.2559 28.9884 62.0646 27.808 61.3819C27.2063 61.0516 26.6868 60.5899 26.2883 60.0314C25.674 59.2186 25.3128 58.2436 25.2497 57.2284C25.1866 56.2133 25.4246 55.2028 25.9337 54.3234L30.2587 46.8973L39.1971 52.103ZM27.4943 3.68574C27.6365 3.44243 27.7165 3.16778 27.7272 2.886C27.7379 2.60422 27.6791 2.32394 27.5559 2.06984C27.4327 1.81575 27.2489 1.59563 27.0207 1.42888C26.7924 1.26213 26.5268 1.15387 26.2471 1.11361C23.2884 0.684349 20.2706 1.11764 17.5571 2.36135C14.8436 3.60506 12.5499 5.6062 10.952 8.12394C9.35418 10.6417 8.52026 13.5688 8.55061 16.553C8.58096 19.5371 9.4743 22.4513 11.1231 24.9447L1.23287 41.9267C0.315235 43.5023 0.063002 45.379 0.531661 47.144C1.00032 48.9089 2.15148 50.4176 3.7319 51.338C5.31231 52.2584 7.19253 52.5153 8.95892 52.052C10.7253 51.5887 12.2332 50.4432 13.1508 48.8676L23.0393 31.8886C26.0222 32.0939 28.9986 31.4339 31.61 29.9881C34.2215 28.5423 36.3567 26.3724 37.7584 23.7396C39.1601 21.1069 39.7686 18.1237 39.5106 15.1493C39.2526 12.1748 38.1391 9.33604 36.3042 6.97476C36.1312 6.75138 35.9059 6.57377 35.6483 6.45755C35.3906 6.34133 35.1085 6.29007 34.8267 6.30829C34.5449 6.32651 34.272 6.41365 34.0323 6.56203C33.7925 6.71041 33.593 6.91549 33.4516 7.1592L27.4711 17.428C27.0122 18.2158 26.2583 18.7885 25.3751 19.0202C24.4919 19.2518 23.5518 19.1234 22.7616 18.6632C21.9714 18.203 21.3958 17.4487 21.1615 16.5662C20.9271 15.6837 21.0533 14.7453 21.5121 13.9575L27.4943 3.68574ZM13.6274 10.368C15.6861 6.83314 19.2694 4.74318 23.0686 4.43379L18.5361 12.2163C17.6184 13.792 17.3662 15.6687 17.8348 17.4336C18.3035 19.1986 19.4547 20.7073 21.0351 21.6277C22.6155 22.5481 24.4957 22.8049 26.2621 22.3417C28.0285 21.8784 29.5364 20.7329 30.454 19.1573L34.9865 11.3748C35.9055 13.3438 36.2753 15.5227 36.0568 17.6813C35.8382 19.8398 35.0395 21.8978 33.745 23.6376C32.4505 25.3774 30.7084 26.7343 28.7028 27.5651C26.6971 28.3958 24.5025 28.6694 22.3509 28.357C22.0117 28.3082 21.6658 28.3614 21.3575 28.51C21.0493 28.6585 20.7926 28.8956 20.6204 29.1909L10.1713 47.1324C9.71251 47.9202 8.95857 48.4929 8.07538 48.7246C7.19218 48.9562 6.25208 48.8278 5.46187 48.3676C4.67166 47.9074 4.09608 47.153 3.86175 46.2706C3.62742 45.3881 3.75354 44.4497 4.21236 43.6619L14.6614 25.7205C14.8333 25.4249 14.9128 25.0847 14.8899 24.7433C14.867 24.4019 14.7427 24.0747 14.5328 23.8037C13.0585 21.9044 12.1851 19.6101 12.0244 17.2151C11.8637 14.8201 12.4231 12.4337 13.6309 10.362L13.6274 10.368Z" fill="#981914"/>
</svg>
