<svg width="74" height="74" viewBox="0 0 74 74" fill="none" xmlns="http://www.w3.org/2000/svg">
<path d="M7.375 59.0271H14.75V74L33.5599 59.0271H51.625C55.6923 59.0271 59 55.7361 59 51.6893V22.3379C59 18.291 55.6923 15 51.625 15H7.375C3.30769 15 0 18.291 0 22.3379V51.6893C0 55.7361 3.30769 59.0271 7.375 59.0271Z" fill="black"/>
<path d="M66.625 0H22.375C18.3077 0 15 3.289 15 7.33333H59.25C63.3173 7.33333 66.625 10.6223 66.625 14.6667V44C70.6923 44 74 40.711 74 36.6667V7.33333C74 3.289 70.6923 0 66.625 0Z" fill="black"/>
</svg>
