<svg width="74" height="74" viewBox="0 0 74 74" fill="none" xmlns="http://www.w3.org/2000/svg">
<path fill-rule="evenodd" clip-rule="evenodd" d="M28.0098 2.00066C28.0098 1.47006 28.2205 0.961179 28.5957 0.585981C28.9709 0.210784 29.4798 0 30.0104 0H38.0131C38.5437 0 39.0526 0.210784 39.4278 0.585981C39.803 0.961179 40.0138 1.47006 40.0138 2.00066C40.0138 2.53127 39.803 3.04015 39.4278 3.41535C39.0526 3.79054 38.5437 4.00133 38.0131 4.00133H30.0104C29.4798 4.00133 28.9709 3.79054 28.5957 3.41535C28.2205 3.04015 28.0098 2.53127 28.0098 2.00066Z" fill="black"/>
<path fill-rule="evenodd" clip-rule="evenodd" d="M34.0113 0C34.5419 0 35.0508 0.210784 35.426 0.585981C35.8012 0.961179 36.012 1.47006 36.012 2.00066V10.0033C36.012 10.5339 35.8012 11.0428 35.426 11.418C35.0508 11.7932 34.5419 12.004 34.0113 12.004C33.4807 12.004 32.9718 11.7932 32.5966 11.418C32.2214 11.0428 32.0106 10.5339 32.0106 10.0033V2.00066C32.0106 1.47006 32.2214 0.961179 32.5966 0.585981C32.9718 0.210784 33.4807 0 34.0113 0ZM2.00066 28.0093C2.53127 28.0093 3.04015 28.2201 3.41535 28.5953C3.79054 28.9705 4.00133 29.4794 4.00133 30.01V38.0126C4.00133 38.5432 3.79054 39.0521 3.41535 39.4273C3.04015 39.8025 2.53127 40.0133 2.00066 40.0133C1.47006 40.0133 0.961179 39.8025 0.585981 39.4273C0.210784 39.0521 0 38.5432 0 38.0126V30.01C0 29.4794 0.210784 28.9705 0.585981 28.5953C0.961179 28.2201 1.47006 28.0093 2.00066 28.0093Z" fill="black"/>
<path fill-rule="evenodd" clip-rule="evenodd" d="M0 34.0111C0 33.4805 0.210784 32.9716 0.585981 32.5964C0.961179 32.2212 1.47006 32.0104 2.00066 32.0104H10.0033C10.5339 32.0104 11.0428 32.2212 11.418 32.5964C11.7932 32.9716 12.004 33.4805 12.004 34.0111C12.004 34.5417 11.7932 35.0506 11.418 35.4258C11.0428 35.801 10.5339 36.0118 10.0033 36.0118H2.00066C1.47006 36.0118 0.961179 35.801 0.585981 35.4258C0.210784 35.0506 0 34.5417 0 34.0111ZM52.4014 7.13218C52.5872 6.94616 52.8079 6.7986 53.0507 6.69792C53.2936 6.59723 53.554 6.54541 53.8169 6.54541C54.0798 6.54541 54.3401 6.59723 54.583 6.69792C54.8259 6.7986 55.0465 6.94616 55.2323 7.13218L60.8902 12.7901C61.2656 13.1652 61.4766 13.6741 61.4768 14.2048C61.477 14.7355 61.2664 15.2446 60.8912 15.62C60.5161 15.9954 60.0072 16.2064 59.4765 16.2066C58.9457 16.2068 58.4367 15.9961 58.0613 15.621L52.4014 9.96112C52.0263 9.58594 51.8156 9.07715 51.8156 8.54665C51.8156 8.01614 52.0263 7.50736 52.4014 7.13218Z" fill="black"/>
<path fill-rule="evenodd" clip-rule="evenodd" d="M58.0594 9.96312C58.4339 10.3382 58.6442 10.8466 58.6442 11.3766C58.6442 11.9066 58.4339 12.415 58.0594 12.7901L52.4015 18.4499C52.0242 18.8144 51.5188 19.016 50.9943 19.0115C50.4697 19.0069 49.9679 18.7965 49.597 18.4256C49.226 18.0546 49.0156 17.5528 49.0111 17.0283C49.0065 16.5037 49.2082 15.9983 49.5726 15.621L55.2325 9.96112C55.6076 9.58605 56.1164 9.37535 56.6469 9.37535C57.1774 9.37535 57.6862 9.58605 58.0614 9.96112L58.0594 9.96312ZM15.6213 7.13218C15.9964 7.50736 16.2071 8.01614 16.2071 8.54665C16.2071 9.07715 15.9964 9.58594 15.6213 9.96112L9.96144 15.621C9.58603 15.9961 9.07698 16.2068 8.54626 16.2066C8.01554 16.2064 7.50664 15.9954 7.1315 15.62C6.75636 15.2446 6.54571 14.7355 6.5459 14.2048C6.54609 13.6741 6.75709 13.1652 7.1325 12.7901L12.7904 7.13218C12.9762 6.94616 13.1968 6.7986 13.4397 6.69792C13.6826 6.59723 13.9429 6.54541 14.2058 6.54541C14.4688 6.54541 14.7291 6.59723 14.972 6.69792C15.2149 6.7986 15.4355 6.94616 15.6213 7.13218Z" fill="black"/>
<path fill-rule="evenodd" clip-rule="evenodd" d="M9.96286 9.96319C10.338 9.58873 10.8463 9.37842 11.3763 9.37842C11.9063 9.37842 12.4147 9.58873 12.7898 9.96319L18.4497 15.6211C18.6408 15.8056 18.7932 16.0264 18.898 16.2705C19.0029 16.5146 19.0581 16.7771 19.0604 17.0427C19.0627 17.3084 19.0121 17.5718 18.9115 17.8177C18.8109 18.0636 18.6623 18.287 18.4745 18.4748C18.2866 18.6627 18.0633 18.8112 17.8174 18.9118C17.5715 19.0124 17.3081 19.063 17.0424 19.0607C16.7768 19.0584 16.5142 19.0032 16.2701 18.8984C16.0261 18.7935 15.8053 18.6411 15.6207 18.45L9.96086 12.7901C9.5858 12.4149 9.3751 11.9062 9.3751 11.3757C9.3751 10.8452 9.5858 10.3364 9.96086 9.96119L9.96286 9.96319ZM15.6207 60.8901C15.4349 61.0761 15.2143 61.2237 14.9714 61.3244C14.7285 61.425 14.4682 61.4769 14.2053 61.4769C13.9424 61.4769 13.682 61.425 13.4391 61.3244C13.1963 61.2237 12.9756 61.0761 12.7898 60.8901L7.13192 55.2322C6.76749 54.8549 6.56583 54.3495 6.57039 53.8249C6.57495 53.3004 6.78536 52.7986 7.1563 52.4276C7.52723 52.0567 8.02902 51.8463 8.55359 51.8417C9.07816 51.8372 9.58353 52.0388 9.96086 52.4033L15.6207 58.0612C15.9958 58.4363 16.2065 58.9451 16.2065 59.4756C16.2065 60.0061 15.9958 60.5149 15.6207 60.8901Z" fill="black"/>
<path fill-rule="evenodd" clip-rule="evenodd" d="M9.9627 58.0592C9.58824 57.6841 9.37793 57.1758 9.37793 56.6458C9.37793 56.1157 9.58824 55.6074 9.9627 55.2323L15.6206 49.5724C15.996 49.1973 16.505 48.9866 17.0358 48.9868C17.5665 48.987 18.0754 49.198 18.4505 49.5734C18.8257 49.9488 19.0363 50.4579 19.0361 50.9886C19.0359 51.5193 18.8249 52.0282 18.4495 52.4034L12.7896 58.0612C12.4145 58.4363 11.9057 58.647 11.3752 58.647C10.8447 58.647 10.3359 58.4363 9.9607 58.0612L9.9627 58.0592Z" fill="black"/>
<path fill-rule="evenodd" clip-rule="evenodd" d="M32.9185 57.9954C32.3145 56.0602 32.0083 54.0446 32.0102 52.0174C32.0102 40.9677 40.9672 32.0107 52.0169 32.0107C54.0976 32.0107 56.1062 32.3288 57.9949 32.919C57.4227 20.1668 46.9032 10.0034 34.0109 10.0034C20.7525 10.0034 10.0029 20.753 10.0029 34.0114C10.0029 46.9037 20.1663 57.4232 32.9185 57.9954ZM26.0082 34.0114C27.6001 34.0114 29.1267 33.379 30.2523 32.2534C31.3779 31.1279 32.0102 29.6012 32.0102 28.0094C32.0102 26.4176 31.3779 24.8909 30.2523 23.7653C29.1267 22.6398 27.6001 22.0074 26.0082 22.0074C24.4164 22.0074 22.8898 22.6398 21.7642 23.7653C20.6386 24.8909 20.0063 26.4176 20.0063 28.0094C20.0063 29.6012 20.6386 31.1279 21.7642 32.2534C22.8898 33.379 24.4164 34.0114 26.0082 34.0114Z" fill="black"/>
<path fill-rule="evenodd" clip-rule="evenodd" d="M52.017 40.013C48.8334 40.013 45.7801 41.2777 43.5289 43.5289C41.2777 45.7801 40.013 48.8334 40.013 52.017C40.013 55.2007 41.2777 58.254 43.5289 60.5051C45.7801 62.7563 48.8334 64.021 52.017 64.021C55.2007 64.021 58.254 62.7563 60.5051 60.5051C62.7563 58.254 64.021 55.2007 64.021 52.017C64.021 48.8334 62.7563 45.7801 60.5051 43.5289C58.254 41.2777 55.2007 40.013 52.017 40.013ZM36.0117 52.017C36.0117 47.7722 37.698 43.7011 40.6996 40.6996C43.7011 37.698 47.7722 36.0117 52.017 36.0117C56.2619 36.0117 60.3329 37.698 63.3345 40.6996C66.3361 43.7011 68.0224 47.7722 68.0224 52.017C68.0224 56.2619 66.3361 60.3329 63.3345 63.3345C60.3329 66.3361 56.2619 68.0224 52.017 68.0224C47.7722 68.0224 43.7011 66.3361 40.6996 63.3345C37.698 60.3329 36.0117 56.2619 36.0117 52.017Z" fill="black"/>
<path fill-rule="evenodd" clip-rule="evenodd" d="M60.6053 60.6063C60.9805 60.2312 61.4893 60.0205 62.0198 60.0205C62.5503 60.0205 63.0591 60.2312 63.4342 60.6063L73.4376 70.6096C73.802 70.9869 74.0037 71.4923 73.9991 72.0169C73.9945 72.5414 73.7841 73.0432 73.4132 73.4142C73.0423 73.7851 72.5405 73.9955 72.0159 74.0001C71.4913 74.0046 70.9859 73.803 70.6086 73.4385L60.6053 63.4352C60.2302 63.06 60.0195 62.5512 60.0195 62.0207C60.0195 61.4902 60.2302 60.9815 60.6053 60.6063Z" fill="black"/>
</svg>
