<svg width="50" height="50" viewBox="0 0 50 50" fill="none" xmlns="http://www.w3.org/2000/svg">
<path d="M7.105 9.6625V28.2475C7.105 38.365 15.1175 46.565 25 46.565C34.8825 46.565 42.895 38.365 42.895 28.2475V9.6725L24.8925 3.615L7.105 9.6625ZM24.8875 0L46.25 7.185V28.2475C46.25 40.26 36.735 50 25 50C13.265 50 3.75 40.26 3.75 28.2475V7.185L24.8875 0ZM35.935 16.2125C35.7718 16.0626 35.5801 15.9471 35.3713 15.8729C35.1625 15.7987 34.9409 15.7673 34.7197 15.7806C34.4986 15.7939 34.2823 15.8516 34.0839 15.9503C33.8855 16.049 33.709 16.1866 33.565 16.355L22.775 28.7775L15.805 21.065C15.6576 20.8999 15.4786 20.7661 15.2785 20.6717C15.0783 20.5772 14.8613 20.5239 14.6401 20.5151C14.419 20.5062 14.1984 20.5419 13.9913 20.6201C13.7843 20.6982 13.5951 20.8172 13.435 20.97C13.1072 21.2833 12.9142 21.7119 12.897 22.165C12.8797 22.6181 13.0395 23.0602 13.3425 23.3975L21.5675 32.4975C21.7242 32.6736 21.9167 32.8141 22.1322 32.9096C22.3478 33.005 22.5812 33.0532 22.8169 33.0508C23.0526 33.0484 23.2851 32.9956 23.4986 32.8958C23.7122 32.7961 23.9019 32.6517 24.055 32.4725L36.0725 18.6375C36.3691 18.2946 36.5206 17.8498 36.4949 17.3972C36.4692 16.9445 36.2684 16.5197 35.935 16.2125Z" fill="#981914"/>
</svg>
