<svg width="62" height="77" viewBox="0 0 62 77" fill="none" xmlns="http://www.w3.org/2000/svg">
<path d="M54.654 26.7357L56.2848 25.1264L57.5544 26.3789L61.3941 22.5905C61.5753 22.4121 61.7192 22.1997 61.8174 21.9657C61.9155 21.7317 61.9661 21.4806 61.9661 21.227C61.9661 20.9734 61.9155 20.7223 61.8174 20.4883C61.7192 20.2542 61.5753 20.0418 61.3941 19.8634L57.9376 16.4549C57.5699 16.0931 57.0736 15.8901 56.5564 15.8901C56.0392 15.8901 55.5429 16.0931 55.1752 16.4549L51.3342 20.2433L52.6038 21.4958L50.9729 23.1038C45.8623 18.8373 39.5025 16.3273 32.8412 15.948V14.4311C36.0513 13.6213 38.4305 10.7556 38.4305 7.33425C38.4331 3.28277 35.1056 0 31.0014 0C26.8958 0 23.5683 3.28277 23.5683 7.33297C23.5683 10.7556 25.9462 13.6187 29.1576 14.4298V15.9467C22.4961 16.3262 16.1363 18.8366 11.0259 23.1038L9.39508 21.4946L10.6621 20.242L6.82235 16.4536C6.45453 16.0921 5.95826 15.8893 5.44115 15.8893C4.92404 15.8893 4.42778 16.0921 4.05996 16.4536L0.604704 19.8621C0.423346 20.0405 0.279363 20.2528 0.181095 20.4869C0.0828267 20.7209 0.0322266 20.972 0.0322266 21.2257C0.0322266 21.4793 0.0828267 21.7305 0.181095 21.9645C0.279363 22.1986 0.423346 22.4109 0.604704 22.5892L4.44574 26.3802L5.71404 25.1264L7.3436 26.7357C2.78907 32.0577 0.0357106 38.9325 0.0357106 46.4438C0.0357106 63.3222 13.9006 77 31.0014 77C48.1021 77 61.967 63.3222 61.967 46.4438C61.967 38.9325 59.2124 32.0564 54.654 26.7357ZM27.8867 6.04707V11.5577C27.2097 11.0777 26.6574 10.4441 26.2757 9.70934C25.894 8.97461 25.6939 8.15997 25.692 7.33297C25.692 4.44033 28.0699 2.09568 31.0014 2.09568C33.9315 2.09568 36.3081 4.44033 36.3081 7.33297C36.3081 9.07445 35.4385 10.6055 34.1134 11.5577L34.1147 6.04707C34.1147 4.17982 27.888 4.17982 27.8867 6.04707ZM31.0014 72.9267C16.1804 72.9267 4.16446 61.0713 4.16446 46.4438C4.16446 31.819 16.1804 19.9635 31.0014 19.9635C45.821 19.9635 57.837 31.8202 57.837 46.4438C57.837 61.0713 45.821 72.9267 31.0014 72.9267Z" fill="black"/>
<path d="M31.2188 21.7607V23.8358H30.3412V30.8557H31.2188V43.139C29.2794 43.139 27.707 44.7097 27.707 46.6502C27.707 48.5908 29.2794 50.1628 31.2188 50.1628C31.6285 50.1628 32.0187 50.0791 32.3856 49.9485L45.5074 60.8036L45.5061 60.801L48.9013 64.1658C53.357 59.6693 56.1079 53.4806 56.1079 46.6502C56.1079 32.9059 44.9643 21.7607 31.2188 21.7607ZM48.7886 60.5514L34.7255 46.6215C34.7192 45.7032 34.3535 44.8245 33.7079 44.1766V24.3873C36.5456 24.7022 39.2252 25.5555 41.6455 26.8348L40.1094 29.494L41.6287 30.3709L43.1649 27.7156C45.9781 29.4966 48.3646 31.8842 50.1524 34.7066L47.4987 36.2394L48.3763 37.7592L51.0274 36.2316C52.582 39.179 53.4547 42.4429 53.58 45.7787H47.0151V47.5297H53.5838C53.4627 50.8678 52.5932 54.1349 51.0404 57.0859L48.3763 55.5465L47.4987 57.0663L50.1575 58.603C49.7323 59.2695 49.2864 59.9254 48.7886 60.5514ZM30.3412 62.4474H32.0952V69.4673H30.3412V62.4474ZM8.40137 45.776H15.4225V47.5271H8.40137V45.776ZM19.0498 27.3314L20.8051 30.3696L22.3257 29.4927L20.5704 26.4546L19.0498 27.3314ZM14.9377 36.2381L11.8977 34.4832L11.02 36.0042L14.06 37.7605L14.9377 36.2381ZM11.02 57.3002L11.8977 58.8212L14.9377 57.0637L14.06 55.5439L11.02 57.3002ZM19.0485 65.973L20.5691 66.8499L22.3244 63.8091L20.8051 62.9309L19.0485 65.973ZM40.1106 63.8091L41.8659 66.8499L43.3879 65.973L41.63 62.9309L40.1106 63.8091Z" fill="black"/>
</svg>
