<svg width="64" height="79" viewBox="0 0 64 79" fill="none" xmlns="http://www.w3.org/2000/svg">
<path d="M58.25 2H5.75C3.67893 2 2 3.67893 2 5.75V73.25C2 75.3211 3.67893 77 5.75 77H58.25C60.3211 77 62 75.3211 62 73.25V5.75C62 3.67893 60.3211 2 58.25 2Z" stroke="black" stroke-width="3" stroke-linejoin="round"/>
<path d="M32 30.125C33.9891 30.125 35.8968 29.3348 37.3033 27.9283C38.7098 26.5218 39.5 24.6141 39.5 22.625C39.5 20.6359 38.7098 18.7282 37.3033 17.3217C35.8968 15.9152 33.9891 15.125 32 15.125C30.0109 15.125 28.1032 15.9152 26.6967 17.3217C25.2902 18.7282 24.5 20.6359 24.5 22.625C24.5 24.6141 25.2902 26.5218 26.6967 27.9283C28.1032 29.3348 30.0109 30.125 32 30.125Z" stroke="black" stroke-width="3" stroke-linejoin="round"/>
<path d="M20.75 63.875H33.875M43.25 41.375C43.25 38.3913 42.0647 35.5298 39.955 33.42C37.8452 31.3103 34.9837 30.125 32 30.125C29.0163 30.125 26.1548 31.3103 24.045 33.42C21.9353 35.5298 20.75 38.3913 20.75 41.375H43.25ZM20.75 52.625H43.25H20.75Z" stroke="black" stroke-width="3" stroke-linecap="round" stroke-linejoin="round"/>
</svg>
